<svg width="30" height="30" viewBox="0 0 30 30" fill="none" xmlns="http://www.w3.org/2000/svg">
<rect width="30" height="30" rx="5" fill="white" fill-opacity="0.1"/>
<path opacity="0.4" d="M24.32 12.55L22.43 11.92L23.32 10.14C23.4102 9.95369 23.4404 9.74397 23.4064 9.53977C23.3723 9.33558 23.2758 9.14698 23.13 9L21 6.87C20.8522 6.72209 20.6618 6.62421 20.4555 6.59013C20.2493 6.55605 20.0375 6.58748 19.85 6.68L18.07 7.57L17.44 5.68C17.3735 5.483 17.2472 5.31163 17.0787 5.18975C16.9102 5.06787 16.7079 5.00155 16.5 5H13.5C13.2904 4.99946 13.0858 5.06482 12.9154 5.18685C12.7449 5.30887 12.6171 5.48138 12.55 5.68L11.92 7.57L10.14 6.68C9.95369 6.58978 9.74397 6.55961 9.53977 6.59364C9.33558 6.62767 9.14698 6.72423 9 6.87L6.87 9C6.72209 9.14777 6.62421 9.33818 6.59013 9.54446C6.55605 9.75074 6.58748 9.96251 6.68 10.15L7.57 11.93L5.68 12.56C5.483 12.6265 5.31163 12.7528 5.18975 12.9213C5.06787 13.0898 5.00155 13.2921 5 13.5V16.5C4.99946 16.7096 5.06482 16.9142 5.18685 17.0846C5.30887 17.2551 5.48138 17.3829 5.68 17.45L7.57 18.08L6.68 19.86C6.58978 20.0463 6.55961 20.256 6.59364 20.4602C6.62767 20.6644 6.72423 20.853 6.87 21L9 23.13C9.14777 23.2779 9.33818 23.3758 9.54446 23.4099C9.75074 23.444 9.96251 23.4125 10.15 23.32L11.93 22.43L12.56 24.32C12.6271 24.5186 12.7549 24.6911 12.9254 24.8132C13.0958 24.9352 13.3004 25.0005 13.51 25H16.51C16.7196 25.0005 16.9242 24.9352 17.0946 24.8132C17.2651 24.6911 17.3929 24.5186 17.46 24.32L18.09 22.43L19.87 23.32C20.0551 23.4079 20.2628 23.4369 20.4649 23.4029C20.667 23.3689 20.8538 23.2736 21 23.13L23.13 21C23.2779 20.8522 23.3758 20.6618 23.4099 20.4555C23.444 20.2493 23.4125 20.0375 23.32 19.85L22.43 18.07L24.32 17.44C24.517 17.3735 24.6884 17.2472 24.8102 17.0787C24.9321 16.9102 24.9985 16.7079 25 16.5V13.5C25.0005 13.2904 24.9352 13.0858 24.8132 12.9154C24.6911 12.7449 24.5186 12.6171 24.32 12.55ZM23 15.78L21.8 16.18C21.5241 16.2695 21.2709 16.418 21.0581 16.6151C20.8452 16.8122 20.6778 17.0533 20.5675 17.3216C20.4571 17.5899 20.4064 17.8789 20.419 18.1688C20.4315 18.4586 20.5069 18.7422 20.64 19L21.21 20.14L20.11 21.24L19 20.64C18.7436 20.5122 18.4627 20.4411 18.1763 20.4313C17.89 20.4215 17.6049 20.4734 17.3403 20.5834C17.0758 20.6934 16.8379 20.8589 16.6429 21.0688C16.4479 21.2787 16.3003 21.5281 16.21 21.8L15.81 23H14.22L13.82 21.8C13.7305 21.5241 13.582 21.2709 13.3849 21.0581C13.1878 20.8452 12.9467 20.6778 12.6784 20.5675C12.4101 20.4571 12.1211 20.4064 11.8312 20.419C11.5414 20.4315 11.2578 20.5069 11 20.64L9.86 21.21L8.76 20.11L9.36 19C9.4931 18.7422 9.56852 18.4586 9.58105 18.1688C9.59357 17.8789 9.5429 17.5899 9.43254 17.3216C9.32218 17.0533 9.15478 16.8122 8.94195 16.6151C8.72911 16.418 8.47595 16.2695 8.2 16.18L7 15.78V14.22L8.2 13.82C8.47595 13.7305 8.72911 13.582 8.94195 13.3849C9.15478 13.1878 9.32218 12.9467 9.43254 12.6784C9.5429 12.4101 9.59357 12.1211 9.58105 11.8312C9.56852 11.5414 9.4931 11.2578 9.36 11L8.79 9.89L9.89 8.79L11 9.36C11.2578 9.4931 11.5414 9.56852 11.8312 9.58105C12.1211 9.59357 12.4101 9.5429 12.6784 9.43254C12.9467 9.32218 13.1878 9.15478 13.3849 8.94195C13.582 8.72911 13.7305 8.47595 13.82 8.2L14.22 7H15.78L16.18 8.2C16.2695 8.47595 16.418 8.72911 16.6151 8.94195C16.8122 9.15478 17.0533 9.32218 17.3216 9.43254C17.5899 9.5429 17.8789 9.59357 18.1688 9.58105C18.4586 9.56852 18.7422 9.4931 19 9.36L20.14 8.79L21.24 9.89L20.64 11C20.5122 11.2564 20.4411 11.5373 20.4313 11.8237C20.4215 12.11 20.4734 12.3951 20.5834 12.6597C20.6934 12.9242 20.8589 13.1621 21.0688 13.3571C21.2787 13.5521 21.5281 13.6997 21.8 13.79L23 14.19V15.78ZM15 11C14.2089 11 13.4355 11.2346 12.7777 11.6741C12.1199 12.1136 11.6072 12.7384 11.3045 13.4693C11.0017 14.2002 10.9225 15.0044 11.0769 15.7804C11.2312 16.5563 11.6122 17.269 12.1716 17.8284C12.731 18.3878 13.4437 18.7688 14.2196 18.9231C14.9956 19.0775 15.7998 18.9983 16.5307 18.6955C17.2616 18.3928 17.8864 17.8801 18.3259 17.2223C18.7654 16.5645 19 15.7911 19 15C19 13.9391 18.5786 12.9217 17.8284 12.1716C17.0783 11.4214 16.0609 11 15 11ZM15 17C14.6044 17 14.2178 16.8827 13.8889 16.6629C13.56 16.4432 13.3036 16.1308 13.1522 15.7654C13.0009 15.3999 12.9613 14.9978 13.0384 14.6098C13.1156 14.2219 13.3061 13.8655 13.5858 13.5858C13.8655 13.3061 14.2219 13.1156 14.6098 13.0384C14.9978 12.9613 15.3999 13.0009 15.7654 13.1522C16.1308 13.3036 16.4432 13.56 16.6629 13.8889C16.8827 14.2178 17 14.6044 17 15C17 15.5304 16.7893 16.0391 16.4142 16.4142C16.0391 16.7893 15.5304 17 15 17Z" fill="white"/>
</svg>
