<svg width="17" height="19" viewBox="0 0 17 19" fill="none" xmlns="http://www.w3.org/2000/svg">
<path id="Vector" d="M15.2411 6.18118L5.28661 0.472289C4.74796 0.161247 4.13658 -0.00169514 3.51458 1.32975e-05C2.89257 0.00172173 2.2821 0.16802 1.74517 0.482016C1.20824 0.796012 0.763969 1.24652 0.457493 1.78778C0.151018 2.32904 -0.00674759 2.94178 0.000221257 3.56374V15.0227C0.000221257 15.9574 0.371526 16.8538 1.03245 17.5148C1.69338 18.1757 2.58979 18.547 3.52448 18.547C4.14322 18.5459 4.75085 18.3825 5.28661 18.073L15.2411 12.3641C15.776 12.0545 16.22 11.6097 16.5288 11.0744C16.8375 10.539 17 9.93185 17 9.31385C17 8.69584 16.8375 8.0887 16.5288 7.55333C16.22 7.01796 15.776 6.57318 15.2411 6.26361V6.18118Z" fill="white"/>
</svg>
